<svg width="70" height="80" viewBox="0 0 70 80" fill="none" xmlns="http://www.w3.org/2000/svg">
<rect x="2.625" y="27" width="64.75" height="50" fill="#FFF8EE"/>
<rect x="2.625" y="3" width="64.75" height="22" fill="#FFEB9B"/>
<rect x="2.625" y="11" width="64.75" height="14" fill="#F9DD8F"/>
<mask id="path-4-inside-1_1_110" fill="white">
<path d="M0 8C0 3.58172 3.13401 0 7 0H63C66.866 0 70 3.58172 70 8V72C70 76.4183 66.866 80 63 80H7C3.13401 80 0 76.4183 0 72V8Z"/>
</mask>
<path d="M9.375 9.5C9.375 8.67157 8.70343 8 7.875 8C7.04657 8 6.375 8.67157 6.375 9.5H7.875H9.375ZM6.375 14.5C6.375 15.3284 7.04657 16 7.875 16C8.70343 16 9.375 15.3284 9.375 14.5H7.875H6.375ZM15.5 9.5C15.5 8.67157 14.8284 8 14 8C13.1716 8 12.5 8.67157 12.5 9.5H14H15.5ZM12.5 14.5C12.5 15.3284 13.1716 16 14 16C14.8284 16 15.5 15.3284 15.5 14.5H14H12.5ZM23.375 9.5C23.375 8.67157 22.7034 8 21.875 8C21.0466 8 20.375 8.67157 20.375 9.5H21.875H23.375ZM20.375 14.5C20.375 15.3284 21.0466 16 21.875 16C22.7034 16 23.375 15.3284 23.375 14.5H21.875H20.375ZM29.5 9.5C29.5 8.67157 28.8284 8 28 8C27.1716 8 26.5 8.67157 26.5 9.5H28H29.5ZM26.5 14.5C26.5 15.3284 27.1716 16 28 16C28.8284 16 29.5 15.3284 29.5 14.5H28H26.5ZM36.5 9.5C36.5 8.67157 35.8284 8 35 8C34.1716 8 33.5 8.67157 33.5 9.5H35H36.5ZM33.5 14.5C33.5 15.3284 34.1716 16 35 16C35.8284 16 36.5 15.3284 36.5 14.5H35H33.5ZM43.5 9.5C43.5 8.67157 42.8284 8 42 8C41.1716 8 40.5 8.67157 40.5 9.5H42H43.5ZM40.5 14.5C40.5 15.3284 41.1716 16 42 16C42.8284 16 43.5 15.3284 43.5 14.5H42H40.5ZM49.625 9.5C49.625 8.67157 48.9534 8 48.125 8C47.2966 8 46.625 8.67157 46.625 9.5H48.125H49.625ZM46.625 14.5C46.625 15.3284 47.2966 16 48.125 16C48.9534 16 49.625 15.3284 49.625 14.5H48.125H46.625ZM56.625 9.5C56.625 8.67157 55.9534 8 55.125 8C54.2966 8 53.625 8.67157 53.625 9.5H55.125H56.625ZM53.625 14.5C53.625 15.3284 54.2966 16 55.125 16C55.9534 16 56.625 15.3284 56.625 14.5H55.125H53.625ZM63.625 9.5C63.625 8.67157 62.9534 8 62.125 8C61.2966 8 60.625 8.67157 60.625 9.5H62.125H63.625ZM60.625 14.5C60.625 15.3284 61.2966 16 62.125 16C62.9534 16 63.625 15.3284 63.625 14.5H62.125H60.625ZM1.3125 26V27.5H68.25V26V24.5H1.3125V26ZM7.875 9.5H6.375V14.5H7.875H9.375V9.5H7.875ZM14 9.5H12.5V14.5H14H15.5V9.5H14ZM21.875 9.5H20.375V14.5H21.875H23.375V9.5H21.875ZM28 9.5H26.5V14.5H28H29.5V9.5H28ZM35 9.5H33.5V14.5H35H36.5V9.5H35ZM42 9.5H40.5V14.5H42H43.5V9.5H42ZM48.125 9.5H46.625V14.5H48.125H49.625V9.5H48.125ZM55.125 9.5H53.625V14.5H55.125H56.625V9.5H55.125ZM62.125 9.5H60.625V14.5H62.125H63.625V9.5H62.125ZM7 0V3H63V0V-3H7V0ZM70 8H67V72H70H73V8H70ZM63 80V77H7V80V83H63V80ZM7 80V77C5.15462 77 3 75.1502 3 72H0H-3C-3 77.6863 1.1134 83 7 83V80ZM70 72H67C67 75.1502 64.8454 77 63 77V80V83C68.8866 83 73 77.6863 73 72H70ZM63 0V3C64.8454 3 67 4.84976 67 8H70H73C73 2.31369 68.8866 -3 63 -3V0ZM7 0V-3C1.11339 -3 -3 2.31368 -3 8H0H3C3 4.84976 5.15462 3 7 3V0ZM0 72H3V8H0H-3V72H0Z" fill="#8D6C9F" mask="url(#path-4-inside-1_1_110)"/>
<path d="M3.0625 31.5C3.4506 31.5 3.875 31.8829 3.875 32.5C3.875 33.1171 3.4506 33.5 3.0625 33.5C2.6744 33.5 2.25 33.1171 2.25 32.5C2.25 31.8829 2.6744 31.5 3.0625 31.5ZM8.3125 31.5C8.7006 31.5 9.125 31.8829 9.125 32.5C9.125 33.1171 8.7006 33.5 8.3125 33.5C7.9244 33.5 7.5 33.1171 7.5 32.5C7.5 31.8829 7.9244 31.5 8.3125 31.5ZM13.5625 31.5C13.9506 31.5 14.375 31.8829 14.375 32.5C14.375 33.1171 13.9506 33.5 13.5625 33.5C13.1744 33.5 12.75 33.1171 12.75 32.5C12.75 31.8829 13.1744 31.5 13.5625 31.5ZM18.8125 31.5C19.2006 31.5 19.625 31.8829 19.625 32.5C19.625 33.1171 19.2006 33.5 18.8125 33.5C18.4244 33.5 18 33.1171 18 32.5C18 31.8829 18.4244 31.5 18.8125 31.5ZM24.0625 31.5C24.4506 31.5 24.875 31.8829 24.875 32.5C24.875 33.1171 24.4506 33.5 24.0625 33.5C23.6744 33.5 23.25 33.1171 23.25 32.5C23.25 31.8829 23.6744 31.5 24.0625 31.5ZM29.3125 31.5C29.7006 31.5 30.125 31.8829 30.125 32.5C30.125 33.1171 29.7006 33.5 29.3125 33.5C28.9244 33.5 28.5 33.1171 28.5 32.5C28.5 31.8829 28.9244 31.5 29.3125 31.5ZM34.5625 31.5C34.9506 31.5 35.375 31.8829 35.375 32.5C35.375 33.1171 34.9506 33.5 34.5625 33.5C34.1744 33.5 33.75 33.1171 33.75 32.5C33.75 31.8829 34.1744 31.5 34.5625 31.5ZM39.8125 31.5C40.2006 31.5 40.625 31.8829 40.625 32.5C40.625 33.1171 40.2006 33.5 39.8125 33.5C39.4244 33.5 39 33.1171 39 32.5C39 31.8829 39.4244 31.5 39.8125 31.5ZM45.0625 31.5C45.4506 31.5 45.875 31.8829 45.875 32.5C45.875 33.1171 45.4506 33.5 45.0625 33.5C44.6744 33.5 44.25 33.1171 44.25 32.5C44.25 31.8829 44.6744 31.5 45.0625 31.5ZM50.3125 31.5C50.7006 31.5 51.125 31.8829 51.125 32.5C51.125 33.1171 50.7006 33.5 50.3125 33.5C49.9244 33.5 49.5 33.1171 49.5 32.5C49.5 31.8829 49.9244 31.5 50.3125 31.5ZM55.5625 31.5C55.9506 31.5 56.375 31.8829 56.375 32.5C56.375 33.1171 55.9506 33.5 55.5625 33.5C55.1744 33.5 54.75 33.1171 54.75 32.5C54.75 31.8829 55.1744 31.5 55.5625 31.5ZM60.8125 31.5C61.2006 31.5 61.625 31.8829 61.625 32.5C61.625 33.1171 61.2006 33.5 60.8125 33.5C60.4244 33.5 60 33.1171 60 32.5C60 31.8829 60.4244 31.5 60.8125 31.5ZM66.0625 31.5C66.4506 31.5 66.875 31.8829 66.875 32.5C66.875 33.1171 66.4506 33.5 66.0625 33.5C65.6744 33.5 65.25 33.1171 65.25 32.5C65.25 31.8829 65.6744 31.5 66.0625 31.5Z" fill="#8D6C9F" stroke="#8D6C9F"/>
<path d="M1.75 40.5H68.25M1.75 54.5H68.25M1.75 68.5H68.25" stroke="#8D6C9F"/>
</svg>
